<svg width="60" height="41" viewBox="0 0 60 41" fill="none" xmlns="http://www.w3.org/2000/svg">
<path d="M0 15.375C0 6.88031 7.19196 0 16.0714 0H17.1429C19.5134 0 21.4286 1.83219 21.4286 4.1C21.4286 6.36781 19.5134 8.2 17.1429 8.2H16.0714C11.933 8.2 8.57143 11.4159 8.57143 15.375V16.4H17.1429C21.8705 16.4 25.7143 20.0772 25.7143 24.6V32.8C25.7143 37.3228 21.8705 41 17.1429 41H8.57143C3.84375 41 0 37.3228 0 32.8V28.7V24.6V15.375ZM34.2857 15.375C34.2857 6.88031 41.4777 0 50.3571 0H51.4286C53.7991 0 55.7143 1.83219 55.7143 4.1C55.7143 6.36781 53.7991 8.2 51.4286 8.2H50.3571C46.2188 8.2 42.8571 11.4159 42.8571 15.375V16.4H51.4286C56.1562 16.4 60 20.0772 60 24.6V32.8C60 37.3228 56.1562 41 51.4286 41H42.8571C38.1295 41 34.2857 37.3228 34.2857 32.8V28.7V24.6V15.375Z" fill="#CBD5DA"/>
</svg>
